<svg id="Group" xmlns="http://www.w3.org/2000/svg" width="20" height="17.983" viewBox="0 0 20 17.983">
  <path id="Path_2741" data-name="Path 2741" d="M5.832.329a4.791,4.791,0,0,1,6.287,2.7q.021.052.039.1l.112-.041c1.412-.489,4.21-.622,4.949,2.535,1.265.312,3.542,1.621,2.53,4.365a3.265,3.265,0,0,1-3.163,2.494H14v-1h2.585a1.7,1.7,0,0,0,1.216-.36A3.016,3.016,0,0,0,18.81,9.647a1.939,1.939,0,0,0-.236-2.1,2.8,2.8,0,0,0-1.6-.946l-.595-.147-.14-.6a2.285,2.285,0,0,0-1.6-1.924,3.2,3.2,0,0,0-2.132.137l-.949.36-.346-.954A4.069,4.069,0,0,0,9.676,1.557a3.922,3.922,0,0,0-3.532-.279A4.468,4.468,0,0,0,3.295,3.526,3.5,3.5,0,0,0,3.01,5.713l.169.724-.645.371C1.019,7.679.841,8.77,1.1,9.63a2.68,2.68,0,0,0,1.957,1.858H6v1H2.985a3.451,3.451,0,0,1-.949-6.547C1.72,4.59,2.036,1.576,5.832.329Z" transform="translate(0 0)" fill="#666" fill-rule="evenodd"/>
  <path id="Path_2742" data-name="Path 2742" d="M9.68,16.3V8.645h1v7.71l2.027-1.947.721.693-3,2.882-.221-.212-.221.212-3-2.882.721-.693Z" transform="translate(0 0)" fill="#666" fill-rule="evenodd"/>
</svg>
