<svg id="configuração" xmlns="http://www.w3.org/2000/svg" width="21" height="21" viewBox="0 0 21 21">
  <rect id="Rectangle_1206" data-name="Rectangle 1206" width="21" height="21" fill="none"/>
  <path id="Path_293" data-name="Path 293" d="M0,4.382A4.377,4.377,0,1,0,1.047,1.536" transform="translate(12.104 16.483) rotate(-150)" fill="none" stroke="#444" stroke-width="1"/>
  <g id="Path_294" data-name="Path 294" transform="translate(-3.047 -3.047)" fill="none">
    <path d="M16.162,3.047l2.96,1.226.058,1.937a1.757,1.757,0,0,0,1.7,1.7l1.937.058,1.226,2.96-1.328,1.411a1.757,1.757,0,0,0,0,2.409l1.328,1.411-1.226,2.96-1.937.058a1.757,1.757,0,0,0-1.7,1.7l-.058,1.937-2.96,1.226-1.411-1.328a1.757,1.757,0,0,0-2.409,0l-1.411,1.328-2.96-1.226-.058-1.937a1.757,1.757,0,0,0-1.7-1.7l-1.937-.058-1.226-2.96,1.328-1.411a1.757,1.757,0,0,0,0-2.409L3.047,10.932l1.226-2.96L6.21,7.913a1.757,1.757,0,0,0,1.7-1.7l.058-1.937,2.96-1.226,1.411,1.328a1.757,1.757,0,0,0,2.409,0Z" stroke="none"/>
    <path d="M 10.71728515625 4.218481063842773 L 8.951662063598633 4.9498291015625 L 8.912811279296875 6.240144729614258 C 8.869010925292969 7.695045471191406 7.695041656494141 8.869014739990234 6.240150451660156 8.912815093994141 L 4.949827194213867 8.951665878295898 L 4.218481063842773 10.7172966003418 L 5.103401184082031 11.65715599060059 C 6.101190567016602 12.71690559387207 6.101190567016602 14.37715530395508 5.103401184082031 15.43687534332275 L 4.218481063842773 16.37674331665039 L 4.949827194213867 18.14237594604492 L 6.240150451660156 18.18122482299805 C 7.695041656494141 18.22503662109375 8.869010925292969 19.39901542663574 8.912811279296875 20.85389518737793 L 8.951662063598633 22.14421844482422 L 10.71728134155273 22.87556838989258 L 11.65714168548584 21.99065589904785 C 12.1706018447876 21.50720596313477 12.84177112579346 21.2409553527832 13.54701137542725 21.2409553527832 C 14.25225162506104 21.2409553527832 14.92341136932373 21.50720596313477 15.43687152862549 21.99064636230469 L 16.37673759460449 22.87557220458984 L 18.1423511505127 22.14422988891602 L 18.18120193481445 20.85389518737793 C 18.22501182556152 19.39900588989258 19.39899063110352 18.22503662109375 20.8538703918457 18.18123626708984 L 22.14419555664062 18.14238548278809 L 22.87553977966309 16.37676048278809 L 21.9906120300293 15.43688583374023 C 20.99283218383789 14.37714576721191 20.99284172058105 12.71689605712891 21.9906120300293 11.65716552734375 L 22.87553787231445 10.71729850769043 L 22.14419555664062 8.951665878295898 L 20.8538703918457 8.912815093994141 C 19.39899063110352 8.869014739990234 18.22501182556152 7.695045471191406 18.18120193481445 6.240156173706055 L 18.1423511505127 4.949832916259766 L 16.37673187255859 4.218482971191406 L 15.43686103820801 5.103404998779297 C 14.92339134216309 5.586854934692383 14.25223159790039 5.853096008300781 13.54701137542725 5.853096008300781 C 12.84177112579346 5.853096008300781 12.17061138153076 5.586845397949219 11.657151222229 5.103404998779297 L 10.71728515625 4.218481063842773 M 10.93201065063477 3.047145843505859 L 12.34266090393066 4.375335693359375 C 13.01921272277832 5.012344360351562 14.07481002807617 5.012344360351562 14.75136184692383 4.375335693359375 L 16.16201019287109 3.047145843505859 L 19.12244033813477 4.273405075073242 L 19.18075180053711 6.210056304931641 C 19.20872116088867 7.138885498046875 19.95514106750488 7.885305404663086 20.88396072387695 7.913265228271484 L 22.82062149047852 7.971574783325195 L 24.04687118530273 10.93202590942383 L 22.71868133544922 12.34267520904541 C 22.08168029785156 13.01922607421875 22.08168029785156 14.07482528686523 22.71868133544922 14.75138568878174 L 24.04687118530273 16.16203689575195 L 22.82062149047852 19.12247467041016 L 20.88396072387695 19.1807861328125 C 19.95514106750488 19.2087459564209 19.20872116088867 19.95516586303711 19.18075180053711 20.88399505615234 L 19.12244033813477 22.82065582275391 L 16.16201019287109 24.04690551757812 L 14.75136184692383 22.71871566772461 C 14.07481002807617 22.08170700073242 13.01921081542969 22.08170700073242 12.3426513671875 22.71871566772461 L 10.9320011138916 24.04690551757812 L 7.97157096862793 22.82064628601074 L 7.913261413574219 20.88399505615234 C 7.88530158996582 19.95516586303711 7.138881683349609 19.2087459564209 6.210050582885742 19.1807746887207 L 4.273401260375977 19.12246513366699 L 3.047151565551758 16.16202545166016 L 4.375331878662109 14.75137615203857 C 5.012340545654297 14.07482528686523 5.012340545654297 13.01922607421875 4.375331878662109 12.34266567230225 L 3.047151565551758 10.93201637268066 L 4.273401260375977 7.971574783325195 L 6.210050582885742 7.913265228271484 C 7.138881683349609 7.885305404663086 7.88530158996582 7.138885498046875 7.913261413574219 6.210056304931641 L 7.97157096862793 4.273405075073242 L 10.93201065063477 3.047145843505859 Z" stroke="none" fill="#444"/>
  </g>
</svg>
