<svg version="1.1" xmlns="http://www.w3.org/2000/svg" viewBox="0 0 48 48" fill="#0E55A4" width="24" height="24"><path d="M24,0A24,24,0,1,0,48,24,24,24,0,0,0,24,0Zm1.748,7.318a2.8,2.8,0,1,1-2.8,2.8A2.8,2.8,0,0,1,25.748,7.318Zm2.6,26.3a2.063,2.063,0,0,1-.837,2.636l-2.467,1.406-.1.051a3.287,3.287,0,0,1-.716.26,3.218,3.218,0,0,1-1.576-.025,3.275,3.275,0,0,1-1.92-1.419,3.221,3.221,0,0,1-.494-1.715,3.3,3.3,0,0,1,.054-.59l0-.016,2.753-14.485H21.8a2.063,2.063,0,0,1-2.033-1.876,2,2,0,0,1,2-2.124h1.673a3.677,3.677,0,0,1,3.62,4.338l0,.016L24.536,33.342l1.027-.585A2,2,0,0,1,28.349,33.613Z"></path></svg>