<svg xmlns="http://www.w3.org/2000/svg" width="31.984" height="26.974" viewBox="0 0 31.984 26.974">
  <path id="Path_191" data-name="Path 191" d="M31.984,24.767a2.186,2.186,0,0,1-2.216,2.207H2.216A2.186,2.186,0,0,1,.311,23.665l13.752-22.6a2.239,2.239,0,0,1,3.809,0l13.8,22.6a2.186,2.186,0,0,1,.312,1.1ZM14.676,17.4a1.325,1.325,0,0,0,1.416,1.31,1.363,1.363,0,0,0,1.254-1.335V8.636A1.363,1.363,0,0,0,16.095,7.3a1.325,1.325,0,0,0-1.416,1.31Zm2.489,6.021a1.63,1.63,0,1,0-1.173.475,1.654,1.654,0,0,0,1.173-.475Z" transform="translate(0)" fill="#ebbc00"/>
</svg>
